<svg height='100px' width='100px'  fill="#000000" xmlns="http://www.w3.org/2000/svg" xmlns:xlink="http://www.w3.org/1999/xlink" xml:space="preserve" style="shape-rendering:geometricPrecision;text-rendering:geometricPrecision;image-rendering:optimizeQuality;" viewBox="0 0 7.33333 7.33333" x="0px" y="0px" fill-rule="evenodd" clip-rule="evenodd"><defs><style type="text/css">
   
    .fil1 {fill:#000000}
    .fil0 {fill:#000000;fill-rule:nonzero}
   
  </style></defs><g><g><path class="fil0" d="M2.09676 2.92938c-0.0441811,0 -0.08,0.0358189 -0.08,0.08 0,0.0441811 0.0358189,0.08 0.08,0.08l1.98288 0 0 1.48717c0,0.0441811 0.0358189,0.08 0.08,0.08l0.991882 0 0 1.4067c0,0.0441811 0.0358189,0.08 0.08,0.08 0.0441811,0 0.08,-0.0358189 0.08,-0.08l0 -1.4867c0,-0.0441811 -0.0358189,-0.08 -0.08,-0.08l-0.991882 0 0 -1.48717c0,-0.0441811 -0.0358189,-0.08 -0.08,-0.08l-2.06288 0z"></path><path class="fil0" d="M1.17072 5.84355c-0.0431457,0.00879921 -0.0709882,0.0509173 -0.062189,0.094063 0.00879921,0.0431457 0.0509173,0.0709882 0.094063,0.062189 0.00708268,-0.00146457 2.47076,-0.497953 2.47076,-1.77696 0,-0.0441811 -0.0358189,-0.08 -0.08,-0.08 -0.0441811,0 -0.08,0.0358189 -0.08,0.08 0,1.1479 -2.33592,1.61932 -2.34263,1.62071z"></path><path class="fil0" d="M4.21019 1.19008c0.192417,0 0.36663,0.0780039 0.492732,0.204106 0.126102,0.126102 0.204106,0.300315 0.204106,0.492732 0,0.192417 -0.078,0.36663 -0.204106,0.492728 -0.126102,0.126102 -0.300315,0.204106 -0.492732,0.204106 -0.192413,0 -0.366626,-0.0780039 -0.492728,-0.204106 -0.126102,-0.126102 -0.204106,-0.300315 -0.204106,-0.492728 0,-0.192417 0.0780039,-0.36663 0.204106,-0.492732 0.126098,-0.126106 0.300311,-0.204106 0.492728,-0.204106zm0.379606 0.317232c-0.0971417,-0.0971417 -0.231358,-0.157232 -0.379606,-0.157232 -0.148248,0 -0.282465,0.0600906 -0.379602,0.157232 -0.0971417,0.0971417 -0.157232,0.231358 -0.157232,0.379606 0,0.148244 0.0600906,0.282461 0.157232,0.379602 0.0971417,0.0971417 0.231358,0.157232 0.379602,0.157232 0.148248,0 0.282465,-0.0600906 0.379606,-0.157232 0.0971417,-0.0971378 0.157232,-0.231354 0.157232,-0.379602 0,-0.148248 -0.0600906,-0.282465 -0.157232,-0.379606z"></path><path class="fil0" d="M4.58275 3.09149c-0.0440079,0.000862205 -0.0789882,0.0372441 -0.078126,0.081252 0.000862205,0.0440079 0.0372441,0.0789882 0.081252,0.078126 0.00277559,-6.29921e-005 0.961661,-0.0156732 1.6164,-0.649457 0.0315827,-0.0307205 0.0322835,-0.0812323 0.00156299,-0.112815 -0.0307205,-0.0315827 -0.0812323,-0.0322835 -0.112815,-0.00156299 -0.609276,0.589776 -1.50568,0.604398 -1.50828,0.604457z"></path></g></g><path class="fil1" d="M1.28486 0l4.76361 0c0.706677,0 1.28486,0.578185 1.28486,1.28486l0 4.76361c0,0.706677 -0.578185,1.28486 -1.28486,1.28486l-4.76361 0c-0.706677,0 -1.28486,-0.578185 -1.28486,-1.28486l0 -4.76361c0,-0.706677 0.578185,-1.28486 1.28486,-1.28486zm3.93701e-006 0.321209l4.76361 0c0.530008,0 0.96365,0.433642 0.96365,0.96365l0 4.76361c0,0.530008 -0.433642,0.96365 -0.96365,0.96365l-4.76361 0c-0.530008,0 -0.96365,-0.433642 -0.96365,-0.96365l0 -4.76361c0,-0.530008 0.433642,-0.96365 0.96365,-0.96365z"></path></svg>